<?xml version="1.0" ?><!DOCTYPE svg  PUBLIC '-//W3C//DTD SVG 1.1//EN'  'http://www.w3.org/Graphics/SVG/1.1/DTD/svg11.dtd'><svg enable-background="new 0 0 64 64" height="64px" id="Layer_1" version="1.1" viewBox="0 0 64 64" width="64px" xml:space="preserve" xmlns="http://www.w3.org/2000/svg" xmlns:xlink="http://www.w3.org/1999/xlink"><path d="M50.832,28.766c0.022-0.042,0.045-0.083,0.059-0.128c0.014-0.043,0.017-0.088,0.021-0.134  c0.006-0.052,0.012-0.103,0.006-0.155c-0.002-0.017,0.005-0.032,0.002-0.049c-0.005-0.03-0.023-0.054-0.031-0.083  c-0.015-0.05-0.03-0.097-0.055-0.144c-0.024-0.045-0.055-0.084-0.087-0.123c-0.02-0.023-0.03-0.052-0.053-0.074  c-0.013-0.012-0.03-0.016-0.044-0.027c-0.038-0.031-0.08-0.054-0.124-0.077s-0.086-0.047-0.134-0.061  c-0.041-0.013-0.084-0.016-0.128-0.021c-0.054-0.006-0.104-0.011-0.158-0.006c-0.017,0.001-0.033-0.005-0.05-0.002  c-5.431,0.9-7.122,1.054-8.48,1.177c-0.563,0.051-1.078,0.098-1.774,0.193c0.381-1.445,0.712-2.29,1.058-3.162  c0.427-1.076,0.868-2.188,1.394-4.456c0.551-2.373,0.279-3.699,0.016-4.981c-0.241-1.176-0.469-2.288,0.008-4.342  c0.495-2.136,0.916-3.046,1.362-4.009c0.458-0.99,0.932-2.013,1.462-4.3c0.001-0.004-0.001-0.007,0-0.011  c0.011-0.047,0.004-0.098,0.005-0.148c0-0.051,0.009-0.102-0.001-0.151c-0.001-0.003,0.001-0.007,0-0.011  c-0.007-0.033-0.027-0.058-0.038-0.089c-0.021-0.059-0.039-0.119-0.073-0.171c-0.021-0.033-0.053-0.057-0.079-0.085  c-0.039-0.043-0.075-0.087-0.124-0.12c-0.036-0.025-0.079-0.037-0.12-0.055c-0.044-0.02-0.081-0.048-0.13-0.059  c-0.005-0.001-0.01,0-0.015,0c-0.048-0.01-0.099-0.003-0.148-0.004c-0.049,0-0.099-0.008-0.146,0c-0.004,0.001-0.008-0.001-0.012,0  c-3.118,0.642-4.668,1.14-6.167,1.621c-1.528,0.491-2.972,0.954-6.01,1.58c-3.008,0.619-4.839,0.644-6.778,0.669  c-1.925,0.026-3.915,0.052-7.063,0.701c-0.002,0-0.004,0.002-0.006,0.003c-0.065,0.014-0.123,0.046-0.182,0.077  c-0.029,0.015-0.063,0.021-0.089,0.039c-0.013,0.009-0.021,0.024-0.034,0.035c-0.063,0.05-0.122,0.104-0.166,0.171  c-0.01,0.015-0.012,0.035-0.021,0.05c-0.039,0.07-0.072,0.142-0.087,0.222c0,0.002-0.002,0.004-0.002,0.006  c-0.397,2.234-0.603,3.355-0.807,4.472c-0.207,1.129-0.412,2.253-0.813,4.515c-0.433,2.433,0.021,3.835,0.422,5.072  c0.381,1.175,0.74,2.284,0.373,4.349c-0.371,2.085-1.03,3.02-1.728,4.01c-0.762,1.081-1.55,2.198-1.979,4.612  c0,0.001,0,0.001,0,0.002c-0.009,0.054,0.001,0.11,0.004,0.167c0.002,0.044-0.005,0.09,0.004,0.132c0,0.001,0,0.002,0,0.003  c0.021,0.091,0.061,0.173,0.11,0.246c0.014,0.021,0.034,0.034,0.049,0.054c0.042,0.051,0.086,0.098,0.14,0.135  c0.026,0.019,0.055,0.031,0.084,0.046c0.054,0.029,0.109,0.052,0.168,0.066c0.017,0.004,0.03,0.016,0.047,0.019  c0.043,0.008,0.087,0.012,0.129,0.012c0,0,0.001,0,0.001,0h0c0,0,0,0,0.001,0c0.001,0,0.002-0.001,0.003-0.001  c0.056,0,0.112-0.006,0.169-0.02c3.434-0.813,5.464-1.253,7.427-1.678c1.709-0.371,3.473-0.753,6.16-1.381  c-0.481,1.57-0.678,2.579-0.863,3.552c-0.233,1.217-0.453,2.367-1.223,4.625c-0.82,2.405-0.899,3.741-0.977,5.033  c-0.075,1.247-0.145,2.425-0.9,4.639c-0.775,2.275-1.292,3.414-1.838,4.62c-0.537,1.186-1.092,2.411-1.891,4.755  c-0.013,0.038-0.008,0.075-0.015,0.113c-0.01,0.056-0.024,0.109-0.021,0.166c0.002,0.05,0.02,0.096,0.032,0.145  c0.011,0.045,0.017,0.091,0.037,0.134c0.025,0.054,0.064,0.098,0.102,0.145c0.022,0.027,0.034,0.061,0.061,0.086  c0.002,0.002,0.006,0.003,0.009,0.006c0.028,0.025,0.065,0.04,0.097,0.061c0.05,0.034,0.099,0.07,0.153,0.09  c0.005,0.002,0.008,0.006,0.013,0.008c0.081,0.027,0.162,0.04,0.242,0.04c0.092,0,0.179-0.021,0.263-0.054  c0.025-0.009,0.047-0.022,0.071-0.035c0.063-0.031,0.118-0.07,0.17-0.118c0.013-0.012,0.029-0.016,0.041-0.028  c1.843-1.953,2.873-2.775,3.963-3.646c1.084-0.864,2.205-1.759,4.121-3.79c1.924-2.04,2.722-3.246,3.494-4.412  c0.77-1.165,1.497-2.265,3.332-4.21c1.832-1.942,2.893-2.726,4.015-3.555c1.127-0.832,2.292-1.692,4.216-3.732  c0.946-1.004,1.342-1.722,1.801-2.553c0.667-1.212,1.498-2.719,4.64-6.049c0.012-0.013,0.016-0.03,0.026-0.043  C50.785,28.854,50.809,28.811,50.832,28.766z M44.771,34.261c-0.426,0.772-0.762,1.383-1.578,2.248  c-1.832,1.942-2.893,2.726-4.015,3.555c-1.127,0.832-2.292,1.692-4.216,3.732c-1.923,2.039-2.72,3.245-3.492,4.411  c-0.771,1.165-1.498,2.266-3.333,4.211c-1.844,1.955-2.874,2.776-3.965,3.647c-0.521,0.415-1.052,0.841-1.674,1.394  c0.223-0.527,0.434-0.994,0.649-1.469c0.537-1.186,1.092-2.411,1.891-4.755c0.82-2.406,0.9-3.742,0.977-5.034  c0.075-1.247,0.145-2.425,0.899-4.638c0.804-2.357,1.044-3.613,1.276-4.828c0.233-1.217,0.453-2.367,1.223-4.625  c0.007-0.02,0.003-0.039,0.008-0.059c0.012-0.049,0.017-0.097,0.019-0.147c0.002-0.052,0.003-0.101-0.005-0.15  c-0.003-0.02,0.003-0.039-0.002-0.059c-0.006-0.027-0.024-0.047-0.034-0.073c-0.018-0.049-0.037-0.095-0.064-0.139  c-0.025-0.041-0.052-0.076-0.083-0.11c-0.033-0.036-0.066-0.068-0.106-0.098c-0.041-0.03-0.083-0.053-0.128-0.075  c-0.025-0.012-0.044-0.033-0.072-0.042c-0.02-0.007-0.04-0.003-0.059-0.008c-0.049-0.012-0.097-0.017-0.148-0.019  c-0.051-0.002-0.1-0.003-0.149,0.005c-0.02,0.003-0.039-0.002-0.059,0.002c-3.434,0.813-5.464,1.253-7.427,1.678  c-1.735,0.377-3.524,0.764-6.28,1.408c0.381-1.322,0.909-2.084,1.463-2.871c0.762-1.081,1.55-2.198,1.979-4.612  c0.433-2.434-0.021-3.836-0.422-5.073c-0.381-1.174-0.74-2.284-0.373-4.348c0.401-2.258,0.606-3.38,0.813-4.508  c0.188-1.028,0.379-2.072,0.717-3.97c2.711-0.521,4.456-0.551,6.284-0.575c1.924-0.025,3.913-0.052,7.061-0.7  c3.117-0.642,4.667-1.139,6.165-1.621c1.315-0.423,2.574-0.826,4.835-1.328c-0.374,1.343-0.713,2.086-1.067,2.853  c-0.458,0.99-0.932,2.013-1.462,4.3c-0.551,2.373-0.279,3.699-0.016,4.982c0.241,1.177,0.469,2.288-0.008,4.341  c-0.501,2.159-0.901,3.171-1.326,4.242c-0.427,1.074-0.867,2.186-1.392,4.449c0,0.001-0.001,0.003-0.001,0.004  c0,0.001-0.001,0.002-0.001,0.003c-0.008,0.034,0,0.066-0.003,0.1c-0.006,0.063-0.018,0.126-0.007,0.192  c0,0.001,0.001,0.002,0.001,0.003c0.003,0.015,0.012,0.028,0.016,0.043c0.019,0.078,0.044,0.152,0.083,0.217  c0.015,0.025,0.037,0.042,0.055,0.065c0.039,0.05,0.078,0.099,0.128,0.137c0.026,0.02,0.057,0.033,0.086,0.05  c0.053,0.031,0.105,0.058,0.165,0.075c0.014,0.004,0.023,0.014,0.038,0.018c0.055,0.013,0.109,0.019,0.164,0.019  c0.002,0,0.003,0,0.004,0h0.001h0.001c0.001,0,0.001,0,0.002,0c0.04,0,0.079-0.003,0.12-0.01c1.3-0.216,1.956-0.275,2.785-0.35  c1.187-0.107,2.629-0.238,6.471-0.847C46.089,31.894,45.359,33.194,44.771,34.261z"/></svg>